<?xml version="1.0" encoding="utf-8"?>
<!-- Generator: Adobe Illustrator 24.0.1, SVG Export Plug-In . SVG Version: 6.00 Build 0)  -->
<svg version="1.1" id="图层_1" xmlns="http://www.w3.org/2000/svg" xmlns:xlink="http://www.w3.org/1999/xlink" x="0px" y="0px"
	 viewBox="0 0 32 32" style="enable-background:new 0 0 32 32;" xml:space="preserve">
<style type="text/css">
	.st0{fill:#939393;}
</style>
<g>
	<path class="st0" d="M8.6,13.1h0.2c0.4,0,0.7-0.2,0.9-0.5c0.3-0.9,1.3-3.3,2.7-3.3c0.6,0,1.1,0.2,1.7,0.4c0.9,0.3,1.9,0.6,3.2,0.4
		c1.4-0.3,1.8-1.6,2.1-2.7c0.5-1.6,0.8-2.5,2.6-2.5c0.4,0,0.7-0.3,0.7-0.7c0-0.4-0.4-0.7-0.7-0.7c-2.9,0-3.5,2.1-4,3.5
		c-0.4,1.1-0.6,1.6-1,1.7c-0.9,0.2-1.7,0-2.5-0.3c-0.7-0.3-1.4-0.5-2.1-0.5C9.5,7.8,8.2,12,8.1,12.2C8,12.5,8.2,13,8.6,13.1z
		 M11.1,6.8c0.4,0,0.8-0.2,1.1-0.5c0.3-0.3,0.5-0.7,0.5-1.1c0-0.4-0.2-0.8-0.6-1.1c-0.3-0.3-0.7-0.5-1.1-0.5c-0.4,0-0.8,0.2-1.1,0.5
		C9.6,4.4,9.4,4.7,9.4,5.2C9.4,5.7,9.6,6,10,6.3C10.3,6.6,10.6,6.8,11.1,6.8z"/>
	<path class="st0" d="M25.6,0.5H6.5C5.1,0.5,4,1.5,4,2.9v13c0,1.4,0.9,2.7,2.4,2.7H14c0.7-0.1,0.7-1.6-0.3-1.6l-0.2,0.1l-7-0.1
		c-0.7,0-1-0.6-1-1.2V3c0-0.7,0.4-1.1,0.9-1.1h19.1c0.7,0.1,1,0.6,1,1.1v5.4c0.1,1,1.5,0.8,1.5,0.1V3C28.1,1.6,27,0.5,25.6,0.5z"/>
	<path class="st0" d="M23,15.5c0.7-0.7,1.1-1.2,1.2-1.2c0.2-0.3,0.2-0.7-0.2-1c-0.2-0.2-0.7-0.2-0.8,0l-1.1,1.1L21,13.3
		c-0.2-0.2-0.6-0.2-0.8,0c-0.4,0.4-0.4,0.7-0.2,1l1.2,1.2l-1.2,1.2c-0.2,0.2-0.3,0.5-0.1,0.7c0.2,0.2,0.5,0.4,0.7,0.4
		c0.2,0,0.4-0.2,0.5-0.3l1-1l1,1c0.1,0.2,0.3,0.3,0.5,0.3c0.3,0.1,0.6-0.1,0.7-0.4c0.1-0.2,0.1-0.6-0.1-0.7
		C24.2,16.7,23,15.5,23,15.5z"/>
	<path class="st0" d="M22.4,9.5c-1.8-0.1-3.3,0.4-4.6,1.6c-1.3,1.1-2,2.6-2,4.4c0,3.4,2.7,6.1,6,6.1s5.9-2.7,6-5.9
		C28,12.1,25.2,9.7,22.4,9.5z M21.8,20c-2.3,0-4.5-2-4.5-4.5c-0.1-2.4,2-4.6,4.7-4.5c1.2,0.1,2.1,0.6,3,1.4c0.8,0.8,1.3,2,1.3,3.2
		C26.4,18,24.4,20.1,21.8,20z"/>
	<path class="st0" d="M4.5,28.6h0.5v-0.5c0.3,0,0.7,0,1-0.1c0-0.1,0-0.3,0-0.4c-0.3,0-0.7,0-1,0.1v-0.5h1v-0.4h-1v-0.5H4.5v0.5H3.7
		c0.1-0.2,0.3-0.5,0.4-0.7h2v-0.4H4.3c0.1-0.2,0.2-0.3,0.3-0.5L4.1,25c-0.1,0.2-0.2,0.5-0.3,0.7H2.9v0.4h0.7
		c-0.1,0.2-0.3,0.5-0.4,0.7v0.4h1.3v0.5c-0.5,0-1,0.1-1.6,0.1l0.1,0.4c0.5,0,1.1-0.1,1.6-0.1C4.5,28.1,4.5,28.6,4.5,28.6z M3.8,31.5
		h0.5v-0.3h3.5v0.3h0.5v-2.7H3.8V31.5z M4.3,29.1h3.5v0.6H4.3V29.1z M4.3,30.2h3.5v0.6H4.3V30.2z"/>
	<path class="st0" d="M6.8,26c0.7,0,1.5-0.1,2.3-0.2l-0.2-0.4c-0.9,0.1-1.7,0.2-2.6,0.2v1c0,0.7-0.2,1.3-0.6,1.7
		c0.1,0.1,0.3,0.2,0.4,0.3c0.3-0.4,0.6-0.9,0.6-1.5h1v1.4h0.5v-1.4h0.9v-0.4H6.8V26z M15.3,30.4c0,0.3-0.2,0.4-0.5,0.4h-0.9
		c-0.3,0-0.5-0.2-0.5-0.5v-1.7h-0.5v1.8c0,0.6,0.3,0.9,0.8,0.9h1.1c0.6,0,0.9-0.2,0.9-0.6c0-0.2,0.1-0.5,0.1-1
		c-0.2-0.1-0.4-0.1-0.5-0.2C15.4,29.9,15.3,30.2,15.3,30.4z M21.1,26.8v-0.4h-2.3c0.1-0.1,0.2-0.2,0.3-0.4l-0.4-0.2
		c-0.4,0.6-0.9,1.1-1.5,1.5c0.1,0.1,0.2,0.2,0.3,0.3c0.2-0.2,0.5-0.4,0.7-0.6c0.2,0.3,0.5,0.5,0.8,0.7c-0.5,0.2-1.1,0.4-1.9,0.5
		c0.1,0.1,0.2,0.3,0.2,0.4c0.9-0.2,1.6-0.5,2.1-0.7c0.6,0.3,1.3,0.5,1.9,0.6c0.1-0.2,0.1-0.3,0.2-0.5c-0.6-0.1-1.1-0.2-1.7-0.4
		C20.3,27.6,20.8,27.2,21.1,26.8z M19.4,27.7c-0.4-0.2-0.7-0.5-1-0.8l0,0h2C20.2,27.2,19.8,27.4,19.4,27.7z"/>
	<path class="st0" d="M15.8,27.6h-3.2c0.1-0.5,0.1-1,0.2-1.5h2.5v-0.5h-5.3v0.5h2.2c0,0.5-0.1,1-0.2,1.5H9.6v0.5H12
		c-0.4,1.3-1.2,2.3-2.5,2.9c0.1,0.1,0.2,0.3,0.4,0.5c1.5-0.8,2.4-1.9,2.7-3.4h3.3V27.6z M16.5,31.5H17v-0.3h4.7v0.3h0.5v-6.1h-5.7
		V31.5z M17,25.8h4.7v4.9H17V25.8z M29.2,27.5V27h-1.7v-1.9h-0.6V27h-2.4v-1.8H24v2.7c0,0.8-0.1,1.4-0.2,1.8
		c-0.1,0.4-0.4,0.8-0.8,1.3c0.2,0.1,0.3,0.3,0.4,0.5c0.6-0.6,1-1.4,1.1-2.4h2.7v2.3h0.6v-2.8h-3.2c0-0.5,0-0.9,0-1.1L29.2,27.5
		L29.2,27.5z"/>
	<path class="st0" d="M20.5,29c-0.7-0.1-1.4-0.2-2-0.3l-0.1,0.4c0.6,0.1,1.3,0.2,2,0.3C20.3,29.4,20.5,29,20.5,29z M17.6,29.9
		c1.1,0.2,2.1,0.3,3.1,0.5l0.2-0.5c-1-0.2-2-0.4-3.1-0.5L17.6,29.9z"/>
</g>
</svg>
