<?xml version="1.0" standalone="no"?><!DOCTYPE svg PUBLIC "-//W3C//DTD SVG 1.1//EN" "http://www.w3.org/Graphics/SVG/1.1/DTD/svg11.dtd"><svg t="1527921704503" class="icon" style="" viewBox="0 0 1024 1024" version="1.1" xmlns="http://www.w3.org/2000/svg" p-id="2170" xmlns:xlink="http://www.w3.org/1999/xlink" width="200" height="200"><defs><style type="text/css"></style></defs><path d="M319.488 385.536c0 18.432 14.848 33.28 33.28 33.28s33.28-14.848 33.28-33.28-14.848-33.28-33.28-33.28c-18.432-0.512-33.28 14.848-33.28 33.28zM468.992 384.512c0 18.432 14.848 33.28 33.28 33.792s33.28-14.848 33.792-33.28c0-18.432-14.848-33.28-33.28-33.28-18.432-1.024-33.792 14.336-33.792 32.768zM552.96 534.528c0 12.8 10.24 23.04 23.04 23.04s23.04-10.24 23.04-23.04-10.24-23.04-23.04-23.04c-12.8-0.512-23.04 10.24-23.04 23.04zM671.232 536.064c0 12.8 10.24 23.04 23.04 23.04s23.04-10.24 23.04-23.04-10.24-23.04-23.04-23.04-23.04 10.24-23.04 23.04z" fill="#50B674" p-id="2171"></path><path d="M512 0C228.864 0 0 228.864 0 512s228.864 512 512 512 512-228.864 512-512S795.136 0 512 0zM424.448 630.272c-27.136 0-48.64-5.632-75.264-11.264l-75.264 37.376 21.504-64C241.664 555.008 209.92 506.88 209.92 446.976c0-102.4 96.768-182.272 215.04-182.272 104.96 0 198.144 64 217.088 151.04-6.656-1.024-13.824-1.024-20.48-1.024-102.4 0-182.272 76.288-182.272 170.496 0 15.872 2.56 30.72 6.656 44.544-8.192-0.512-14.848 0.512-21.504 0.512z m314.88 75.264l15.872 53.76L696.32 727.04c-21.504 5.632-43.008 11.264-64 11.264-102.4 0-182.272-69.632-182.272-155.648s79.872-155.648 182.272-155.648c96.768 0 182.272 69.632 182.272 155.648 0 47.616-31.744 90.624-75.264 122.88z" fill="#10C904" p-id="2172"></path></svg>